<svg width="133" height="53" viewBox="0 0 133 53" fill="none" xmlns="http://www.w3.org/2000/svg">
<g clip-path="url(#clip0_1151_470)">
<path d="M32.9888 53C27.6253 49.302 24.1147 43.1061 24.1147 36.1148C24.1147 24.7975 33.2953 15.6014 44.5934 15.6014C50.5141 15.6014 56.7831 18.8249 61.4778 23.8765V23.8486C58.8588 18.9505 54.2476 15.2665 48.7309 13.8989C47.1985 5.98657 40.2469 0 31.9022 0C23.5714 0 16.6476 5.94471 15.0874 13.8291C6.42223 15.9642 0 23.7649 0 33.1006C0 43.8876 8.59548 52.6511 19.2945 52.9442L19.2806 52.9721L32.9888 53Z" fill="#F16263"/>
<path d="M133.001 19.7739H127.623L118.053 32.9332L108.384 19.7739H102.77H98.1172V52.414H102.77H108.398L118.066 39.2547L127.637 52.414H133.015L120.978 36.087L133.001 19.7739ZM102.77 52.414V19.7739L114.681 36.087L102.77 52.414Z" fill="#1E2020"/>
<path d="M44.5937 19.397C35.3714 19.397 27.9043 26.8767 27.9043 36.1147C27.9043 45.3527 35.3714 52.8325 44.5937 52.8325C53.8161 52.8325 61.2832 45.3527 61.2832 36.1147C61.2832 26.8767 53.8022 19.397 44.5937 19.397ZM44.5937 48.4228C37.8093 48.4228 32.3065 42.9107 32.3065 36.1147C32.3065 29.3188 37.8093 23.8067 44.5937 23.8067C51.3782 23.8067 56.8809 29.3188 56.8809 36.1147C56.8809 42.9107 51.3782 48.4228 44.5937 48.4228Z" fill="#1E2020"/>
<path d="M79.3098 19.7739C75.0469 19.7739 71.1741 21.4904 68.36 24.2813V19.7739H63.707V35.4032V52.414H68.36H68.4297V35.4032C68.4297 29.3887 73.3055 24.5046 79.3098 24.5046C85.3141 24.5046 90.19 29.3887 90.19 35.4032V52.414H94.9126V35.4032C94.9126 26.7652 87.9332 19.7739 79.3098 19.7739Z" fill="#1E2020"/>
</g>
<defs>
<clipPath id="clip0_1151_470">
<rect width="133" height="53" fill="white"/>
</clipPath>
</defs>
</svg>
